# xmcd
#
# Track frame offsets: 
#        150
#        14870
#        34597
#        48541
#        65560
#        80345
#        94476
#        115049
#        132964
#        150033
#        166676
#        181257
#        200536
#
# Disc length: 2867 seconds
#
# Revision: 0
# Processed by: cddbd v1.5.2PL0 Copyright (c) Steve Scherf et al.
# Submitted via: ExactAudioCopy v1.0b3
#
DISCID=a30b310d
DTITLE=Jackson Taylor And The Sinners - Aces 'N Eights
DYEAR=2009
DGENRE=Country
TTITLE0=Back On The Bottle (Feat Dale Watson and Jonny "2 Bags")
TTITLE1=Ball And Chain (Feat Jason Boland)
TTITLE2=Country Song
TTITLE3=Sunset
TTITLE4=Barefeet On The Dash
TTITLE5=Aces 'n Eights
TTITLE6=Easy Lovin' Stranger
TTITLE7=Circle Of Trust
TTITLE8=Highway 101
TTITLE9=Love Don't Come Around Here
TTITLE10=Sex, Love And Texas
TTITLE11=Cocaine
TTITLE12=Back On The Bottle (Feat The Taylors) (Bonus Track)
EXTD=
EXTT0=
EXTT1=
EXTT2=
EXTT3=
EXTT4=
EXTT5=
EXTT6=
EXTT7=
EXTT8=
EXTT9=
EXTT10=
EXTT11=
EXTT12=
PLAYORDER=
